# xmcd
#
# Track frame offsets:
#	150
#	15180
#	32995
#	55115
#	69228
#	86423
#	99500
#	115185
#	137723
#	150250
#	168435
#	181803
#	200365
#	213433
#	228885
#
# Disc length: 3374
#
# Revision: 1
# Processed by: cddbd v1.5.2PL0 Copyright (c) Steve Scherf et al.
# Submitted via: kJams Pro (development) 1.0patch48
#
DISCID=b10d2c0f
DTITLE=Various Artist - MM6011
DYEAR=1993
DGENRE=Country
TTITLE0=Alabama - Born Country
TTITLE1=Travis Tritt - Nothing Short of Dying
TTITLE2=Wynonna - She is His Only Need
TTITLE3=Holly Dunn - Maybe I Mean Yes
TTITLE4=Trisha Yearwood - The Woman Before Me
TTITLE5=Aaron Tippon - There Ain't Nothing Wrong With the Radio
TTITLE6=Reba McIntire - Don't Touch Me There
TTITLE7=Judds - Love Can Build a Bridge
TTITLE8=Randy Travis - Better Class of Losers
TTITLE9=Collin Raye - LLove Me
TTITLE10=Allan Jackson - Dallas
TTITLE11=Vince Gill - Pocket Full of Gold
TTITLE12=Clint Black - Killin' Time
TTITLE13=Reba McIntire - The Greatest Man I Never Knew
TTITLE14=Trisha Yearwood - You Done Me Wrong and That Ain't Right
EXTD=
EXTT0=
EXTT1=
EXTT2=
EXTT3=
EXTT4=
EXTT5=
EXTT6=
EXTT7=
EXTT8=
EXTT9=
EXTT10=
EXTT11=
EXTT12=
EXTT13=
EXTT14=
PLAYORDER=
